ffmpeg started on 2026-01-13 at 11:44:34
Report written to "D:\Convert\FFMetrics\reports\ssim_report-6.txt"
Log level: 32
Command line:
ffmpeg -hide_banner -nostdin -r 24000/1001 -i "F:\\Convert\\files\\[DC] Make Heroine ga Oosugiru - 07_Telegram_HEVC(82).mkv" -r 24000/1001 -i "F:\\Convert\\files\\[DC] Make Heroine ga Oosugiru - 07_Telegram.mp4" -lavfi "[0:v]settb=AVTB,setpts=PTS-STARTPTS,format=pix_fmts=yuv420p10le,fps=24000/1001,scale=1920:1080:flags=lanczos:param0=3:out_range=limited:out_color_matrix=bt709:out_chroma_loc=left,setsar=1/1,setdar=(1920/1080)*(1/1),colorspace=format=yuv420p10:range=tv:primaries=bt709:trc=bt709:space=bt709:fast=0[main];[1:v]settb=AVTB,setpts=PTS-STARTPTS,format=pix_fmts=yuv420p,fps=24000/1001,scale=1920:1080:flags=lanczos:param0=3:out_range=limited:out_color_matrix=bt709:out_chroma_loc=left,setsar=1.000,setdar=1.778,colorspace=format=yuv420p:range=tv:primaries=bt709:trc=bt709:space=bt709:fast=0[ref];[main][ref]ssim=eof_action=endall:stats_file='D\\:/Convert/FFMetrics/logs/ssim_logfile-6.txt'" -f null -
Input #0, matroska,webm, from 'F:\Convert\files\[DC] Make Heroine ga Oosugiru - 07_Telegram_HEVC(82).mkv':
  Metadata:
    COMPATIBLE_BRANDS: isomiso2avc1mp41
    MAJOR_BRAND     : isom
    MINOR_VERSION   : 512
    ENCODER         : Lavf61.7.100
  Duration: 00:24:06.79, start: -0.021000, bitrate: 931 kb/s
  Stream #0:0: Video: hevc (Main 10), yuv420p10le(tv, bt709, progressive), 1920x1080 [SAR 1:1 DAR 16:9], 23.98 fps, 23.98 tbr, 1k tbn (default)
      Metadata:
        HANDLER_NAME    : VideoHandler
        VENDOR_ID       : [0][0][0][0]
        ENCODER         : Lavc61.19.100 libx265
        BPS             : 734861
        DURATION        : 00:24:06.569708333
        NUMBER_OF_FRAMES: 34683
        NUMBER_OF_BYTES : 132878426
        _STATISTICS_WRITING_APP: mkvpropedit v94.0 ('Initiate') 64-bit
        _STATISTICS_WRITING_DATE_UTC: 2026-01-11 16:17:11
        _STATISTICS_TAGS: BPS DURATION NUMBER_OF_FRAMES NUMBER_OF_BYTES
  Stream #0:1: Audio: aac (LC), 48000 Hz, stereo, fltp (default)
      Metadata:
        HANDLER_NAME    : SoundHandler
        VENDOR_ID       : [0][0][0][0]
        ENCODER         : Lavc61.19.100 aac
        BPS             : 193194
        DURATION        : 00:24:06.784000000
        NUMBER_OF_FRAMES: 67819
        NUMBER_OF_BYTES : 34938755
        _STATISTICS_WRITING_APP: mkvpropedit v94.0 ('Initiate') 64-bit
        _STATISTICS_WRITING_DATE_UTC: 2026-01-11 16:17:11
        _STATISTICS_TAGS: BPS DURATION NUMBER_OF_FRAMES NUMBER_OF_BYTES
Input #1, mov,mp4,m4a,3gp,3g2,mj2, from 'F:\Convert\files\[DC] Make Heroine ga Oosugiru - 07_Telegram.mp4':
  Metadata:
    major_brand     : isom
    minor_version   : 512
    compatible_brands: isomiso2avc1mp41
    encoder         : Lavf60.16.100
  Duration: 00:24:06.74, start: 0.000000, bitrate: 3764 kb/s
  Stream #1:0[0x1](und): Video: h264 (High) (avc1 / 0x31637661), yuv420p(tv, bt709, progressive), 1920x1080 [SAR 1:1 DAR 16:9], 3616 kb/s, 23.98 fps, 23.98 tbr, 24k tbn (default)
      Metadata:
        handler_name    : VideoHandler
        vendor_id       : [0][0][0][0]
        encoder         : Lavc60.31.102 h264_qsv
  Stream #1:1[0x2](und): Audio: aac (HE-AACv2) (mp4a / 0x6134706D), 48000 Hz, stereo, fltp, 144 kb/s (default)
      Metadata:
        handler_name    : SoundHandler
        vendor_id       : [0][0][0][0]
Stream mapping:
  Stream #0:0 (hevc) -> settb:default
  Stream #1:0 (h264) -> settb:default
  ssim:default -> Stream #0:0 (wrapped_avframe)
  Stream #0:1 -> #0:1 (aac (native) -> pcm_s16le (native))
Output #0, null, to 'pipe:':
  Metadata:
    COMPATIBLE_BRANDS: isomiso2avc1mp41
    MAJOR_BRAND     : isom
    MINOR_VERSION   : 512
    encoder         : Lavf61.7.100
  Stream #0:0: Video: wrapped_avframe, yuv420p10le(tv, bt709, progressive), 1920x1080 [SAR 1:1 DAR 16:9], q=2-31, 200 kb/s, 23.98 fps, 23.98 tbn
      Metadata:
        encoder         : Lavc61.19.100 wrapped_avframe
  Stream #0:1: Audio: pcm_s16le, 48000 Hz, stereo, s16, 1536 kb/s (default)
      Metadata:
        HANDLER_NAME    : SoundHandler
        VENDOR_ID       : [0][0][0][0]
        _STATISTICS_TAGS: BPS DURATION NUMBER_OF_FRAMES NUMBER_OF_BYTES
        BPS             : 193194
        DURATION        : 00:24:06.784000000
        NUMBER_OF_FRAMES: 67819
        NUMBER_OF_BYTES : 34938755
        _STATISTICS_WRITING_APP: mkvpropedit v94.0 ('Initiate') 64-bit
        _STATISTICS_WRITING_DATE_UTC: 2026-01-11 16:17:11
        encoder         : Lavc61.19.100 pcm_s16le
frame=  142 fps=0.0 q=-0.0 size=N/A time=00:00:05.92 bitrate=N/A speed=11.5x    frame=  335 fps=322 q=-0.0 size=N/A time=00:00:13.97 bitrate=N/A speed=13.4x    frame=  530 fps=341 q=-0.0 size=N/A time=00:00:22.10 bitrate=N/A speed=14.2x    frame=  694 fps=336 q=-0.0 size=N/A time=00:00:28.94 bitrate=N/A speed=  14x    frame=  874 fps=337 q=-0.0 size=N/A time=00:00:36.45 bitrate=N/A speed=14.1x    frame= 1017 fps=328 q=-0.0 size=N/A time=00:00:42.41 bitrate=N/A speed=13.7x    frame= 1182 fps=327 q=-0.0 size=N/A time=00:00:49.29 bitrate=N/A speed=13.6x    frame= 1351 fps=327 q=-0.0 size=N/A time=00:00:56.34 bitrate=N/A speed=13.7x    frame= 1515 fps=326 q=-0.0 size=N/A time=00:01:03.18 bitrate=N/A speed=13.6x    frame= 1664 fps=322 q=-0.0 size=N/A time=00:01:09.40 bitrate=N/A speed=13.4x    frame= 1837 fps=323 q=-0.0 size=N/A time=00:01:16.61 bitrate=N/A speed=13.5x    frame= 1942 fps=313 q=-0.0 size=N/A time=00:01:20.99 bitrate=N/A speed=13.1x    frame= 2066 fps=308 q=-0.0 size=N/A time=00:01:26.16 bitrate=N/A speed=12.8x    frame= 2199 fps=305 q=-0.0 size=N/A time=00:01:31.71 bitrate=N/A speed=12.7x    frame= 2359 fps=305 q=-0.0 size=N/A time=00:01:38.38 bitrate=N/A speed=12.7x    frame= 2487 fps=301 q=-0.0 size=N/A time=00:01:43.72 bitrate=N/A speed=12.6x    frame= 2645 fps=301 q=-0.0 size=N/A time=00:01:50.31 bitrate=N/A speed=12.6x    frame= 2823 fps=303 q=-0.0 size=N/A time=00:01:57.74 bitrate=N/A speed=12.7x    frame= 2990 fps=305 q=-0.0 size=N/A time=00:02:04.70 bitrate=N/A speed=12.7x    frame= 3191 fps=309 q=-0.0 size=N/A time=00:02:13.09 bitrate=N/A speed=12.9x    frame= 3386 fps=311 q=-0.0 size=N/A time=00:02:21.22 bitrate=N/A speed=  13x    frame= 3575 fps=314 q=-0.0 size=N/A time=00:02:29.10 bitrate=N/A speed=13.1x    frame= 3756 fps=316 q=-0.0 size=N/A time=00:02:36.65 bitrate=N/A speed=13.2x    frame= 3952 fps=318 q=-0.0 size=N/A time=00:02:44.83 bitrate=N/A speed=13.3x    frame= 4135 fps=320 q=-0.0 size=N/A time=00:02:52.46 bitrate=N/A speed=13.3x    frame= 4266 fps=317 q=-0.0 size=N/A time=00:02:57.92 bitrate=N/A speed=13.2x    frame= 4460 fps=319 q=-0.0 size=N/A time=00:03:06.01 bitrate=N/A speed=13.3x    frame= 4638 fps=320 q=-0.0 size=N/A time=00:03:13.44 bitrate=N/A speed=13.4x    frame= 4830 fps=322 q=-0.0 size=N/A time=00:03:21.45 bitrate=N/A speed=13.4x    frame= 5029 fps=324 q=-0.0 size=N/A time=00:03:29.75 bitrate=N/A speed=13.5x    frame= 5206 fps=325 q=-0.0 size=N/A time=00:03:37.13 bitrate=N/A speed=13.6x    frame= 5389 fps=326 q=-0.0 size=N/A time=00:03:44.76 bitrate=N/A speed=13.6x    frame= 5581 fps=327 q=-0.0 size=N/A time=00:03:52.77 bitrate=N/A speed=13.6x    frame= 5769 fps=328 q=-0.0 size=N/A time=00:04:00.61 bitrate=N/A speed=13.7x    frame= 5946 fps=329 q=-0.0 size=N/A time=00:04:07.99 bitrate=N/A speed=13.7x    frame= 6135 fps=330 q=-0.0 size=N/A time=00:04:15.88 bitrate=N/A speed=13.8x    frame= 6323 fps=331 q=-0.0 size=N/A time=00:04:23.72 bitrate=N/A speed=13.8x    frame= 6511 fps=332 q=-0.0 size=N/A time=00:04:31.56 bitrate=N/A speed=13.8x    frame= 6656 fps=330 q=-0.0 size=N/A time=00:04:37.61 bitrate=N/A speed=13.8x    frame= 6837 fps=331 q=-0.0 size=N/A time=00:04:45.15 bitrate=N/A speed=13.8x    frame= 7022 fps=332 q=-0.0 size=N/A time=00:04:52.87 bitrate=N/A speed=13.8x    frame= 7214 fps=332 q=-0.0 size=N/A time=00:05:00.88 bitrate=N/A speed=13.9x    frame= 7394 fps=333 q=-0.0 size=N/A time=00:05:08.39 bitrate=N/A speed=13.9x    frame= 7576 fps=333 q=-0.0 size=N/A time=00:05:15.98 bitrate=N/A speed=13.9x    frame= 7760 fps=334 q=-0.0 size=N/A time=00:05:23.65 bitrate=N/A speed=13.9x    frame= 7953 fps=335 q=-0.0 size=N/A time=00:05:31.70 bitrate=N/A speed=  14x    frame= 8133 fps=335 q=-0.0 size=N/A time=00:05:39.21 bitrate=N/A speed=  14x    frame= 8324 fps=336 q=-0.0 size=N/A time=00:05:47.18 bitrate=N/A speed=  14x    frame= 8511 fps=336 q=-0.0 size=N/A time=00:05:54.97 bitrate=N/A speed=  14x    frame= 8695 fps=337 q=-0.0 size=N/A time=00:06:02.65 bitrate=N/A speed=  14x    frame= 8890 fps=337 q=-0.0 size=N/A time=00:06:10.78 bitrate=N/A speed=14.1x    frame= 9073 fps=338 q=-0.0 size=N/A time=00:06:18.41 bitrate=N/A speed=14.1x    frame= 9193 fps=336 q=-0.0 size=N/A time=00:06:23.42 bitrate=N/A speed=  14x    frame= 9385 fps=337 q=-0.0 size=N/A time=00:06:31.43 bitrate=N/A speed=  14x    frame= 9556 fps=337 q=-0.0 size=N/A time=00:06:38.56 bitrate=N/A speed=  14x    frame= 9742 fps=337 q=-0.0 size=N/A time=00:06:46.32 bitrate=N/A speed=14.1x    frame= 9928 fps=337 q=-0.0 size=N/A time=00:06:54.08 bitrate=N/A speed=14.1x    frame=10112 fps=338 q=-0.0 size=N/A time=00:07:01.75 bitrate=N/A speed=14.1x    frame=10281 fps=338 q=-0.0 size=N/A time=00:07:08.80 bitrate=N/A speed=14.1x    frame=10470 fps=338 q=-0.0 size=N/A time=00:07:16.68 bitrate=N/A speed=14.1x    frame=10648 fps=338 q=-0.0 size=N/A time=00:07:24.11 bitrate=N/A speed=14.1x    frame=10829 fps=338 q=-0.0 size=N/A time=00:07:31.65 bitrate=N/A speed=14.1x    frame=11016 fps=339 q=-0.0 size=N/A time=00:07:39.45 bitrate=N/A speed=14.1x    frame=11195 fps=339 q=-0.0 size=N/A time=00:07:46.92 bitrate=N/A speed=14.1x    frame=11376 fps=339 q=-0.0 size=N/A time=00:07:54.47 bitrate=N/A speed=14.1x    frame=11536 fps=339 q=-0.0 size=N/A time=00:08:01.14 bitrate=N/A speed=14.1x    frame=11699 fps=338 q=-0.0 size=N/A time=00:08:07.94 bitrate=N/A speed=14.1x    frame=11885 fps=339 q=-0.0 size=N/A time=00:08:15.70 bitrate=N/A speed=14.1x    frame=12069 fps=339 q=-0.0 size=N/A time=00:08:23.37 bitrate=N/A speed=14.1x    frame=12263 fps=339 q=-0.0 size=N/A time=00:08:31.46 bitrate=N/A speed=14.2x    frame=12443 fps=340 q=-0.0 size=N/A time=00:08:38.97 bitrate=N/A speed=14.2x    frame=12631 fps=340 q=-0.0 size=N/A time=00:08:46.81 bitrate=N/A speed=14.2x    frame=12812 fps=340 q=-0.0 size=N/A time=00:08:54.36 bitrate=N/A speed=14.2x    frame=13004 fps=341 q=-0.0 size=N/A time=00:09:02.37 bitrate=N/A speed=14.2x    frame=13189 fps=341 q=-0.0 size=N/A time=00:09:10.09 bitrate=N/A speed=14.2x    frame=13371 fps=341 q=-0.0 size=N/A time=00:09:17.68 bitrate=N/A speed=14.2x    frame=13553 fps=341 q=-0.0 size=N/A time=00:09:25.27 bitrate=N/A speed=14.2x    frame=13727 fps=341 q=-0.0 size=N/A time=00:09:32.53 bitrate=N/A speed=14.2x    frame=13906 fps=341 q=-0.0 size=N/A time=00:09:39.99 bitrate=N/A speed=14.2x    frame=14022 fps=339 q=-0.0 size=N/A time=00:09:44.83 bitrate=N/A speed=14.2x    frame=14193 fps=339 q=-0.0 size=N/A time=00:09:51.96 bitrate=N/A speed=14.2x    frame=14374 fps=340 q=-0.0 size=N/A time=00:09:59.51 bitrate=N/A speed=14.2x    frame=14560 fps=340 q=-0.0 size=N/A time=00:10:07.27 bitrate=N/A speed=14.2x    frame=14741 fps=340 q=-0.0 size=N/A time=00:10:14.82 bitrate=N/A speed=14.2x    frame=14924 fps=340 q=-0.0 size=N/A time=00:10:22.45 bitrate=N/A speed=14.2x    frame=15099 fps=340 q=-0.0 size=N/A time=00:10:29.75 bitrate=N/A speed=14.2x    frame=15269 fps=340 q=-0.0 size=N/A time=00:10:36.84 bitrate=N/A speed=14.2x    frame=15450 fps=340 q=-0.0 size=N/A time=00:10:44.39 bitrate=N/A speed=14.2x    frame=15640 fps=340 q=-0.0 size=N/A time=00:10:52.31 bitrate=N/A speed=14.2x    frame=15822 fps=341 q=-0.0 size=N/A time=00:10:59.90 bitrate=N/A speed=14.2x    frame=16005 fps=341 q=-0.0 size=N/A time=00:11:07.54 bitrate=N/A speed=14.2x    frame=16199 fps=341 q=-0.0 size=N/A time=00:11:15.63 bitrate=N/A speed=14.2x    frame=16369 fps=341 q=-0.0 size=N/A time=00:11:22.72 bitrate=N/A speed=14.2x    frame=16510 fps=340 q=-0.0 size=N/A time=00:11:28.60 bitrate=N/A speed=14.2x    frame=16697 fps=341 q=-0.0 size=N/A time=00:11:36.40 bitrate=N/A speed=14.2x    frame=16888 fps=341 q=-0.0 size=N/A time=00:11:44.37 bitrate=N/A speed=14.2x    frame=17076 fps=341 q=-0.0 size=N/A time=00:11:52.21 bitrate=N/A speed=14.2x    frame=17258 fps=341 q=-0.0 size=N/A time=00:11:59.80 bitrate=N/A speed=14.2x    frame=17443 fps=341 q=-0.0 size=N/A time=00:12:07.51 bitrate=N/A speed=14.2x    frame=17623 fps=341 q=-0.0 size=N/A time=00:12:15.02 bitrate=N/A speed=14.2x    frame=17796 fps=341 q=-0.0 size=N/A time=00:12:22.24 bitrate=N/A speed=14.2x    frame=17986 fps=342 q=-0.0 size=N/A time=00:12:30.16 bitrate=N/A speed=14.2x    frame=18167 fps=342 q=-0.0 size=N/A time=00:12:37.71 bitrate=N/A speed=14.2x    frame=18342 fps=342 q=-0.0 size=N/A time=00:12:45.01 bitrate=N/A speed=14.2x    frame=18522 fps=342 q=-0.0 size=N/A time=00:12:52.52 bitrate=N/A speed=14.3x    frame=18718 fps=342 q=-0.0 size=N/A time=00:13:00.69 bitrate=N/A speed=14.3x    frame=18835 fps=341 q=-0.0 size=N/A time=00:13:05.57 bitrate=N/A speed=14.2x    frame=19017 fps=341 q=-0.0 size=N/A time=00:13:13.16 bitrate=N/A speed=14.2x    frame=19206 fps=341 q=-0.0 size=N/A time=00:13:21.05 bitrate=N/A speed=14.2x    frame=19396 fps=342 q=-0.0 size=N/A time=00:13:28.97 bitrate=N/A speed=14.2x    frame=19586 fps=342 q=-0.0 size=N/A time=00:13:36.89 bitrate=N/A speed=14.3x    frame=19777 fps=342 q=-0.0 size=N/A time=00:13:44.86 bitrate=N/A speed=14.3x    frame=19962 fps=342 q=-0.0 size=N/A time=00:13:52.58 bitrate=N/A speed=14.3x    frame=20147 fps=342 q=-0.0 size=N/A time=00:14:00.29 bitrate=N/A speed=14.3x    frame=20329 fps=342 q=-0.0 size=N/A time=00:14:07.88 bitrate=N/A speed=14.3x    frame=20513 fps=343 q=-0.0 size=N/A time=00:14:15.56 bitrate=N/A speed=14.3x    frame=20692 fps=343 q=-0.0 size=N/A time=00:14:23.02 bitrate=N/A speed=14.3x    frame=20885 fps=343 q=-0.0 size=N/A time=00:14:31.07 bitrate=N/A speed=14.3x    frame=21068 fps=343 q=-0.0 size=N/A time=00:14:38.71 bitrate=N/A speed=14.3x    frame=21244 fps=343 q=-0.0 size=N/A time=00:14:46.05 bitrate=N/A speed=14.3x    frame=21385 fps=342 q=-0.0 size=N/A time=00:14:51.93 bitrate=N/A speed=14.3x    frame=21566 fps=342 q=-0.0 size=N/A time=00:14:59.48 bitrate=N/A speed=14.3x    frame=21754 fps=343 q=-0.0 size=N/A time=00:15:07.32 bitrate=N/A speed=14.3x    frame=21941 fps=343 q=-0.0 size=N/A time=00:15:15.12 bitrate=N/A speed=14.3x    frame=22125 fps=343 q=-0.0 size=N/A time=00:15:22.79 bitrate=N/A speed=14.3x    frame=22309 fps=343 q=-0.0 size=N/A time=00:15:30.47 bitrate=N/A speed=14.3x    frame=22497 fps=343 q=-0.0 size=N/A time=00:15:38.31 bitrate=N/A speed=14.3x    frame=22642 fps=343 q=-0.0 size=N/A time=00:15:44.36 bitrate=N/A speed=14.3x    frame=22758 fps=342 q=-0.0 size=N/A time=00:15:49.19 bitrate=N/A speed=14.3x    frame=22943 fps=342 q=-0.0 size=N/A time=00:15:56.91 bitrate=N/A speed=14.3x    frame=23133 fps=342 q=-0.0 size=N/A time=00:16:04.83 bitrate=N/A speed=14.3x    frame=23321 fps=342 q=-0.0 size=N/A time=00:16:12.68 bitrate=N/A speed=14.3x    frame=23516 fps=343 q=-0.0 size=N/A time=00:16:20.81 bitrate=N/A speed=14.3x    frame=23714 fps=343 q=-0.0 size=N/A time=00:16:29.07 bitrate=N/A speed=14.3x    frame=23901 fps=343 q=-0.0 size=N/A time=00:16:36.87 bitrate=N/A speed=14.3x    frame=24095 fps=343 q=-0.0 size=N/A time=00:16:44.96 bitrate=N/A speed=14.3x    frame=24287 fps=343 q=-0.0 size=N/A time=00:16:52.97 bitrate=N/A speed=14.3x    frame=24476 fps=344 q=-0.0 size=N/A time=00:17:00.85 bitrate=N/A speed=14.3x    frame=24668 fps=344 q=-0.0 size=N/A time=00:17:08.86 bitrate=N/A speed=14.3x    frame=24850 fps=344 q=-0.0 size=N/A time=00:17:16.45 bitrate=N/A speed=14.3x    frame=25036 fps=344 q=-0.0 size=N/A time=00:17:24.20 bitrate=N/A speed=14.3x    frame=25189 fps=344 q=-0.0 size=N/A time=00:17:30.59 bitrate=N/A speed=14.3x    frame=25372 fps=344 q=-0.0 size=N/A time=00:17:38.22 bitrate=N/A speed=14.3x    frame=25571 fps=344 q=-0.0 size=N/A time=00:17:46.52 bitrate=N/A speed=14.3x    frame=25760 fps=344 q=-0.0 size=N/A time=00:17:54.40 bitrate=N/A speed=14.4x    frame=25947 fps=344 q=-0.0 size=N/A time=00:18:02.20 bitrate=N/A speed=14.4x    frame=26138 fps=344 q=-0.0 size=N/A time=00:18:10.17 bitrate=N/A speed=14.4x    frame=26329 fps=345 q=-0.0 size=N/A time=00:18:18.13 bitrate=N/A speed=14.4x    frame=26528 fps=345 q=-0.0 size=N/A time=00:18:26.43 bitrate=N/A speed=14.4x    frame=26711 fps=345 q=-0.0 size=N/A time=00:18:34.07 bitrate=N/A speed=14.4x    frame=26902 fps=345 q=-0.0 size=N/A time=00:18:42.03 bitrate=N/A speed=14.4x    frame=27085 fps=345 q=-0.0 size=N/A time=00:18:49.67 bitrate=N/A speed=14.4x    frame=27267 fps=345 q=-0.0 size=N/A time=00:18:57.26 bitrate=N/A speed=14.4x    frame=27455 fps=345 q=-0.0 size=N/A time=00:19:05.10 bitrate=N/A speed=14.4x    frame=27624 fps=345 q=-0.0 size=N/A time=00:19:12.15 bitrate=N/A speed=14.4x    frame=27777 fps=345 q=-0.0 size=N/A time=00:19:18.53 bitrate=N/A speed=14.4x    frame=27961 fps=345 q=-0.0 size=N/A time=00:19:26.20 bitrate=N/A speed=14.4x    frame=28147 fps=345 q=-0.0 size=N/A time=00:19:33.96 bitrate=N/A speed=14.4x    frame=28340 fps=345 q=-0.0 size=N/A time=00:19:42.01 bitrate=N/A speed=14.4x    frame=28531 fps=345 q=-0.0 size=N/A time=00:19:49.98 bitrate=N/A speed=14.4x    frame=28715 fps=346 q=-0.0 size=N/A time=00:19:57.65 bitrate=N/A speed=14.4x    frame=28883 fps=345 q=-0.0 size=N/A time=00:20:04.66 bitrate=N/A speed=14.4x    frame=29057 fps=345 q=-0.0 size=N/A time=00:20:11.91 bitrate=N/A speed=14.4x    frame=29237 fps=345 q=-0.0 size=N/A time=00:20:19.42 bitrate=N/A speed=14.4x    frame=29411 fps=345 q=-0.0 size=N/A time=00:20:26.68 bitrate=N/A speed=14.4x    frame=29584 fps=345 q=-0.0 size=N/A time=00:20:33.89 bitrate=N/A speed=14.4x    frame=29765 fps=345 q=-0.0 size=N/A time=00:20:41.44 bitrate=N/A speed=14.4x    frame=29936 fps=345 q=-0.0 size=N/A time=00:20:48.58 bitrate=N/A speed=14.4x    frame=30070 fps=345 q=-0.0 size=N/A time=00:20:54.16 bitrate=N/A speed=14.4x    frame=30257 fps=345 q=-0.0 size=N/A time=00:21:01.96 bitrate=N/A speed=14.4x    frame=30448 fps=345 q=-0.0 size=N/A time=00:21:09.93 bitrate=N/A speed=14.4x    frame=30636 fps=345 q=-0.0 size=N/A time=00:21:17.77 bitrate=N/A speed=14.4x    frame=30827 fps=345 q=-0.0 size=N/A time=00:21:25.74 bitrate=N/A speed=14.4x    frame=31014 fps=345 q=-0.0 size=N/A time=00:21:33.54 bitrate=N/A speed=14.4x    frame=31201 fps=345 q=-0.0 size=N/A time=00:21:41.34 bitrate=N/A speed=14.4x    frame=31392 fps=346 q=-0.0 size=N/A time=00:21:49.30 bitrate=N/A speed=14.4x    frame=31572 fps=346 q=-0.0 size=N/A time=00:21:56.81 bitrate=N/A speed=14.4x    frame=31758 fps=346 q=-0.0 size=N/A time=00:22:04.57 bitrate=N/A speed=14.4x    frame=31940 fps=346 q=-0.0 size=N/A time=00:22:12.16 bitrate=N/A speed=14.4x    frame=32123 fps=346 q=-0.0 size=N/A time=00:22:19.79 bitrate=N/A speed=14.4x    frame=32315 fps=346 q=-0.0 size=N/A time=00:22:27.80 bitrate=N/A speed=14.4x    frame=32504 fps=346 q=-0.0 size=N/A time=00:22:35.68 bitrate=N/A speed=14.4x    frame=32633 fps=346 q=-0.0 size=N/A time=00:22:41.06 bitrate=N/A speed=14.4x    frame=32787 fps=345 q=-0.0 size=N/A time=00:22:47.49 bitrate=N/A speed=14.4x    frame=32957 fps=345 q=-0.0 size=N/A time=00:22:54.58 bitrate=N/A speed=14.4x    frame=33133 fps=345 q=-0.0 size=N/A time=00:23:01.92 bitrate=N/A speed=14.4x    frame=33315 fps=345 q=-0.0 size=N/A time=00:23:09.51 bitrate=N/A speed=14.4x    frame=33478 fps=345 q=-0.0 size=N/A time=00:23:16.31 bitrate=N/A speed=14.4x    frame=33628 fps=345 q=-0.0 size=N/A time=00:23:22.56 bitrate=N/A speed=14.4x    frame=33772 fps=344 q=-0.0 size=N/A time=00:23:28.57 bitrate=N/A speed=14.4x    frame=33897 fps=344 q=-0.0 size=N/A time=00:23:33.78 bitrate=N/A speed=14.3x    frame=34062 fps=344 q=-0.0 size=N/A time=00:23:40.66 bitrate=N/A speed=14.3x    frame=34223 fps=344 q=-0.0 size=N/A time=00:23:47.38 bitrate=N/A speed=14.3x    frame=34366 fps=343 q=-0.0 size=N/A time=00:23:53.34 bitrate=N/A speed=14.3x    frame=34509 fps=343 q=-0.0 size=N/A time=00:23:59.31 bitrate=N/A speed=14.3x    frame=34650 fps=343 q=-0.0 size=N/A time=00:24:05.19 bitrate=N/A speed=14.3x    [Parsed_ssim_16 @ 000001b66625c700] SSIM Y:0.993813 (22.085105) U:0.993977 (22.201974) V:0.993580 (21.924506) All:0.993801 (22.077063)
[out#0/null @ 000001b658da8a00] video:14903KiB audio:271276KiB subtitle:0KiB other streams:0KiB global headers:0KiB muxing overhead: unknown
frame=34683 fps=343 q=-0.0 Lsize=N/A time=00:24:06.57 bitrate=N/A speed=14.3x    
